Blade Runner 1982 Workprint BluRay 1080p ac3 x264-LoNeWoLf

Encoded by Tequila-Bob a.k.a. bobnjeff a.k.a.LoNeWoLf

Source - NTSC BluRay Disc.

Movie has been tested and is DXVA Compliant


-----------------------------------------------------------------------------------------------------------------------------------------------


Original workprint version (1982, 113 minutes) shown to audience test previews in Denver and Dallas in March 1982.

Shot on 70mm film and is  Darker and has more of a Gitty Edgey feel to it than other versions.




The Denver/Dallas/U.K. Sneak Preview of Blade Runner

A somewhat complete list of alternate scenes, shots, cuts, and sounds featured in this unique version of a classic science fiction film.

This rarely-seen cut of Blade Runner was, in essence, a work-in-progress. It was cut together after numerous changes, re-shoots, mixes, and decisions had been made by the filmmakers as to how it could/should/would be presented. Screened in Denver, Colorado on 3/5/1982 and Dallas, Texas on 3/6/1982, as well as in the United Kingdom (date unknown to me), it was the first incarnation of Blade Runner the general moviegoing public was to ever see. As compared to all other OFFICIALLY released versions, most notably the 1982 International Cut (the uncensored version of the official 1982 release) and the 1992 "Director’s Cut" (a release which was prompted by the overwhelming success of this "workprint’s" brief run in LA in 1990 and 1991), the original sneak preview version is rather different. The main differences are a rougher sound mix, unfinished music and scenes, and some extra and/or alternate shots within scenes already familiar to fans across the planet. This in-depth checklist will allow those folks who can’t wait to see another version of Blade Runner to compare and contrast the workprint to their favorite cut(s). (And yes, I did pull a lot of this information from Paul M. Sammon’s great book: FUTURE NOIR- THE MAKING OF Blade Runner.) 

See a complete review ond list of the 80 alternate scenes

see the link below
 
http://media.bladezone.com/contents/film/workprint/

-------------------------------------------------------------------------------------------------------------------------------------------------- 
http://www.imdb.com/title/tt0083658/

Genres:Drama , Sci-Fi , Thriller 

Rated R for violence and brief nudity 

Release Date:25 June 1982 (USA)


Storyline
In a cyberpunk vision of the future, man has developed the technology to create replicants, human clones used to serve in the colonies outside Earth but with fixed lifespans. In Los Angeles, 2019, Deckard is a Blade Runner, a cop who specialises in terminating replicants. Originally in retirement, he is forced to re-enter the force when six replicants escape from an offworld colony to Earth.


Cast
Cast overview, first billed only: 
  Harrison Ford  ...  Rick Deckard  
  Rutger Hauer  ...  Roy Batty  
  Sean Young  ...  Rachael  
  Edward James Olmos  ...  Gaff  
  M. Emmet Walsh  ...  Bryant  
  Daryl Hannah  ...  Pris  
  William Sanderson  ...  J.F. Sebastian  
  Brion James  ...  Leon Kowalski  
  Joe Turkel  ...  Dr. Eldon Tyrell  
  Joanna Cassidy  ...  Zhora  
  James Hong  ...  Hannibal Chew  
  Morgan Paull  ...  Holden  
  Kevin Thompson  ...  Bear  
  John Edward Allen  ...  Kaiser  
  Hy Pyke  ...  Taffey Lewis  


[img]http://torrent-stats.info/9214/a449f248.png[/img]

See the full size 1920x880 PNG files at the link below
 
http://s1015.photobucket.com/albums/af279/tequila-bob/Blade%20Runner%201982%20Workprint/



Format : Matroska 
File size : 8.24 GiB 
Duration : 1h 50mn 
Overall bit rate : 10.7 Mbps 
Encoded date : UTC 2011-01-09 14:02:57 
Writing application : mkvmerge v4.4.0 ('Die Wiederkehr') built on Oct 31 2010 21:52:48 
Writing library : libebml v1.0.0 + libmatroska v1.0.0 

Video 
ID : 1 
Format : AVC 
Format/Info : Advanced Video Codec 
Format profile : High@L4.1 
Format settings, CABAC : Yes 
Format settings, ReFrames : 3 frames 
Muxing mode : Container profile=Unknown@4.1 
Codec ID : V_MPEG4/ISO/AVC 
Duration : 1h 50mn 
Bit rate : 10.0 Mbps 
Width : 1 920 pixels 
Height : 880 pixels 
Display aspect ratio : 2.2:1 
Frame rate : 23.976 fps 
Color space : YUV 
Chroma subsampling : 4:2:0 
Bit depth : 8 bits 
Scan type : Progressive 
Bits/(Pixel*Frame) : 0.248 
Stream size : 7.58 GiB (92%) 
Writing library : x264 core 98 r1649 c54c47d 
Encoding settings : cabac=1 / ref=4 / deblock=1:-3:-3 / analyse=0x3:0x113 / me=umh / subme=9 / psy=1 / psy_rd=1.00:0.15 / mixed_ref=1 / me_range=64 / chroma_me=1 / trellis=2 / 8x8dct=1 / cqm=0 / deadzone=21,11 / fast_pskip=0 / chroma_qp_offset=-3 / threads=6 / sliced_threads=0 / nr=0 / decimate=1 / interlaced=0 / constrained_intra=0 / bframes=3 / b_pyramid=1 / b_adapt=2 / b_bias=0 / direct=1 / weightb=1 / weightp=2 / keyint=250 / keyint_min=25 / scenecut=40 / intra_refresh=0 / rc_lookahead=60 / rc=2pass / mbtree=1 / bitrate=10049 / ratetol=1.0 / qcomp=0.60 / qpmin=10 / qpmax=51 / qpstep=4 / cplxblur=20.0 / qblur=0.5 / vbv_maxrate=50000 / vbv_bufsize=50000 / ip_ratio=1.40 / aq=1:1.50 / nal_hrd=none 
Language : English 

Audio 
ID : 2 
Format : AC-3 
Format/Info : Audio Coding 3 
Mode extension : CM (complete main) 
Codec ID : A_AC3 
Duration : 1h 50mn 
Bit rate mode : Constant 
Bit rate : 640 Kbps 
Channel(s) : 6 channels 
Channel positions : Front: L C R, Side: L R, LFE 
Sampling rate : 48.0 KHz 
Bit depth : 16 bits 
Stream size : 504 MiB (6%) 
Title : 3/2+1 
Language : English 

Text #1 
ID : 3 
Format : PGS 
Codec ID : S_HDMV/PGS 
Codec ID/Info : The same subtitle format used on BDs/HD-DVDs 
Language : English 

Text #2 
ID : 4 
Format : PGS 
Codec ID : S_HDMV/PGS 
Codec ID/Info : The same subtitle format used on BDs/HD-DVDs 
Language : French 

Text #3 
ID : 5 
Format : PGS 
Codec ID : S_HDMV/PGS 
Codec ID/Info : The same subtitle format used on BDs/HD-DVDs 
Language : Spanish 

Menu & 33 Chapters


See the full size 1920x880 PNG files at the link below
 
http://s1015.photobucket.com/albums/af279/tequila-bob/Blade%20Runner%201982%20Workprint/


